<?xml version="1.0" standalone="no"?>
<!DOCTYPE svg PUBLIC "-//W3C//DTD SVG 20010904//EN"
 "http://www.w3.org/TR/2001/REC-SVG-20010904/DTD/svg10.dtd">
<svg version="1.0" xmlns="http://www.w3.org/2000/svg"
 width="1080.000000pt" height="1080.000000pt" viewBox="0 0 1080.000000 1080.000000"
 preserveAspectRatio="xMidYMid meet">

<g transform="translate(0.000000,1080.000000) scale(0.100000,-0.100000)"
fill="#000000" stroke="none">
<path d="M5928 10504 c-26 -8 -56 -25 -66 -39 -17 -22 -24 -24 -47 -15 -49 19
-109 11 -176 -21 -35 -17 -74 -36 -87 -42 -58 -28 -111 -112 -112 -175 0 -33
-3 -35 -53 -47 -36 -7 -121 -86 -137 -125 -9 -22 -23 -33 -51 -40 -25 -7 -48
-23 -66 -47 -26 -34 -28 -43 -27 -130 l0 -93 -31 -10 c-37 -12 -75 -51 -100
-100 -23 -44 -21 -126 4 -207 17 -55 17 -67 5 -100 -38 -107 8 -215 109 -259
23 -10 43 -19 45 -19 1 -1 -4 -15 -13 -31 -38 -73 -26 -153 31 -208 31 -30 34
-37 24 -56 -7 -13 -15 -41 -19 -65 l-6 -42 -920 259 -920 260 -35 39 c-47 52
-71 59 -203 59 -110 1 -118 2 -407 84 -162 46 -299 81 -304 79 -15 -10 12 -19
264 -89 l245 -69 -746 -5 -745 -5 -56 -38 c-87 -61 -88 -63 -88 -381 l0 -274
-155 -147 c-85 -81 -155 -151 -155 -156 0 -14 2209 -12 2249 2 28 10 121 108
121 128 0 6 1283 -351 1777 -494 51 -15 52 -16 68 -71 12 -42 28 -68 66 -106
27 -27 49 -55 48 -61 -5 -40 4 -69 30 -94 l28 -29 -54 -34 c-129 -82 -250
-254 -517 -740 -118 -216 -106 -204 -144 -137 -69 122 -143 118 -177 -8 -10
-36 -22 -68 -26 -71 -26 -16 -102 55 -191 177 -64 87 -108 114 -170 106 -21
-3 -101 -35 -176 -71 -174 -83 -212 -96 -276 -96 -92 0 -117 42 -141 231 -8
68 -15 125 -15 126 0 1 89 4 198 6 l197 2 -202 3 c-196 2 -203 3 -203 22 0 19
7 20 223 20 l222 1 -152 148 -153 148 0 271 c0 152 -4 282 -10 296 -11 29 -8
31 21 16 45 -25 49 -52 49 -347 l0 -278 123 -114 122 -114 -112 114 -113 114
0 275 c0 333 2 325 -110 383 l-74 37 -899 0 c-815 0 -902 -2 -934 -16 -64 -31
-67 -43 -73 -289 -4 -193 -7 -215 -17 -180 -7 22 -25 56 -41 75 -55 65 -128
40 -203 -72 -77 -112 -151 -306 -183 -478 -26 -132 -37 -131 -106 15 -27 56
-39 73 -39 55 -1 -32 68 -170 92 -184 35 -22 50 4 79 135 59 268 173 497 266
536 32 13 37 13 61 -5 16 -11 39 -50 58 -98 30 -72 33 -88 33 -189 0 -165 4
-179 66 -238 88 -84 86 -83 419 -76 160 4 400 7 536 8 l245 1 35 -36 c95 -101
165 -121 215 -61 15 17 33 47 41 65 l13 32 145 0 c80 0 145 -4 145 -8 0 -4 7
-64 15 -132 24 -193 57 -240 164 -240 65 0 114 17 291 101 80 38 156 69 169
69 49 0 91 -32 156 -120 107 -144 180 -197 212 -154 7 10 18 37 23 59 14 56
33 89 53 93 29 6 65 -25 92 -77 13 -27 29 -52 34 -56 6 -3 -46 -117 -117 -258
-70 -139 -167 -340 -216 -447 l-88 -196 -1660 469 c-913 258 -1662 466 -1666
463 -3 -3 -3 -8 0 -11 2 -3 749 -215 1659 -472 910 -256 1655 -467 1656 -468
1 0 -25 -67 -59 -147 -61 -143 -63 -145 -88 -137 -98 33 -3184 898 -3188 894
-3 -3 -3 -8 1 -11 4 -4 2756 -785 3178 -902 l26 -7 -62 -160 c-52 -135 -65
-160 -81 -157 -10 2 -784 186 -1719 409 l-1700 406 -65 -23 c-210 -75 -260
-108 -260 -170 0 -38 740 -3342 757 -3383 33 -77 50 -85 510 -236 235 -77
1198 -393 2138 -702 1509 -496 1718 -562 1775 -563 l65 -1 970 455 970 456 3
135 3 136 -98 21 c-54 11 -169 35 -256 53 l-157 33 97 51 c216 113 218 114
353 287 67 87 123 158 124 158 24 -7 492 -87 494 -85 2 2 -11 89 -28 195 -27
161 -30 195 -18 205 7 8 209 141 448 296 382 248 442 284 489 291 107 17 177
62 216 138 33 65 33 137 -1 259 -14 51 -23 95 -21 98 3 2 78 -17 167 -42 145
-41 186 -48 167 -29 -7 8 -313 94 -332 94 -8 0 -15 8 -16 18 0 9 -6 85 -13
167 -7 83 -12 151 -11 152 1 2 119 -30 263 -71 153 -42 262 -68 262 -62 0 10
-475 150 -511 150 -13 0 -19 47 -43 306 -31 348 -67 662 -96 830 -10 63 -22
131 -25 150 -4 24 11 0 49 -75 85 -169 145 -239 191 -222 21 9 32 41 49 148
17 104 35 139 72 139 26 0 45 -32 88 -151 28 -78 78 -153 115 -171 46 -23 70
-12 158 74 65 62 76 69 100 63 54 -13 72 -42 103 -166 30 -120 60 -209 71
-209 13 0 11 10 -10 72 -11 31 -29 96 -41 144 -26 103 -50 148 -92 170 -47 24
-81 10 -154 -66 -37 -38 -74 -70 -83 -73 -50 -13 -104 54 -156 193 -45 123
-57 140 -100 140 -57 0 -73 -28 -96 -180 -13 -84 -23 -110 -44 -110 -25 0 -90
94 -155 222 -35 68 -68 130 -75 138 -7 8 -28 60 -48 115 -53 151 -101 256
-179 400 -74 135 -247 399 -293 448 -15 16 -31 45 -37 65 -19 72 -227 243
-486 397 -62 38 -111 69 -109 71 2 3 1209 -335 1214 -340 2 -2 -6 -25 -18 -51
-26 -58 -22 -148 8 -194 51 -80 106 -123 238 -185 243 -115 507 -72 712 117
l43 39 78 -21 c89 -24 92 -24 92 -12 0 5 -31 17 -70 27 -38 10 -70 21 -70 25
0 3 143 134 318 289 174 156 338 307 364 337 55 62 121 193 137 271 16 77 13
224 -5 296 -8 33 -29 88 -45 120 -16 33 -29 65 -29 71 0 7 -28 39 -62 72 -51
48 -73 62 -115 72 -95 23 -140 3 -287 -127 -120 -107 -146 -149 -146 -233 1
-74 24 -119 113 -216 95 -103 109 -154 58 -219 -42 -53 -524 -474 -556 -484
-65 -21 -106 0 -190 98 -92 108 -137 137 -220 136 -77 0 -101 -13 -225 -123
l-99 -88 -633 178 c-348 98 -645 181 -660 185 -15 3 -106 48 -201 100 -96 52
-231 117 -301 145 -115 46 -332 109 -376 109 -10 0 -22 6 -28 13 -9 12 -75
367 -76 416 -1 19 7 26 39 36 75 22 110 45 153 100 l20 25 621 -175 c341 -96
1031 -290 1533 -430 502 -141 925 -260 941 -265 19 -6 27 -6 27 3 0 7 -153 55
-388 120 -465 131 -2691 756 -2712 762 -11 4 -15 20 -15 63 0 42 -5 65 -20 85
l-20 28 46 49 c25 27 58 52 73 56 64 16 186 170 186 235 0 15 6 17 35 12 45
-7 113 18 148 55 28 29 57 100 56 136 0 11 -6 37 -12 56 -11 31 -10 40 10 79
44 84 23 159 -53 192 -41 18 -44 22 -37 47 24 83 -5 222 -58 278 -19 20 -19
22 -3 60 48 112 0 240 -106 284 -27 11 -30 17 -30 57 0 89 -58 155 -146 169
-39 5 -42 9 -48 43 -7 43 -53 92 -108 116 -21 8 -38 20 -38 25 0 18 -64 82
-103 101 -50 26 -135 35 -179 20 -30 -11 -34 -10 -48 11 -8 13 -29 38 -48 57
-31 32 -36 33 -87 29 -39 -3 -62 -11 -79 -27 -21 -20 -24 -20 -37 -5 -20 24
-89 54 -124 53 -16 0 -51 -7 -77 -15z m-4648 -1918 l-20 -20 0 275 c0 245 2
277 18 299 16 24 17 15 20 -255 2 -268 2 -280 -18 -299z m2910 298 c459 -130
865 -244 903 -255 l67 -20 0 -38 c0 -47 22 -123 66 -227 l35 -81 -35 -59 c-46
-77 -84 -180 -92 -249 -5 -42 -11 -55 -23 -55 -9 1 -419 115 -911 254 l-895
253 -3 363 -2 362 27 -6 c16 -4 404 -113 863 -242z m-989 -604 c-23 -20 -44
-20 -1134 -20 -989 0 -1109 2 -1090 15 18 13 163 15 1115 18 601 1 1102 3
1113 4 18 2 18 1 -4 -17z m2094 -50 c3 -5 15 -10 26 -10 10 0 19 -6 19 -14 0
-40 61 -221 137 -402 2 -7 -69 9 -159 35 l-163 47 2 55 c2 61 37 164 84 245
30 54 42 63 54 44z m37 -417 c153 -42 171 -49 184 -74 7 -15 36 -57 64 -93
l51 -66 -65 0 c-35 0 -71 -3 -79 -6 -13 -5 -14 -1 -5 29 15 49 -13 105 -64
130 -46 22 -86 16 -129 -20 l-30 -26 -30 29 c-17 16 -38 42 -46 58 -19 37 -34
86 -26 86 4 0 82 -21 175 -47z m-3638 -768 c4 -13 2 -14 -14 -5 -23 13 -26 20
-6 20 8 0 16 -7 20 -15z m86 -5 c-6 -11 -19 -20 -30 -20 -11 0 -24 9 -30 20
-10 18 -8 20 30 20 38 0 40 -2 30 -20z m1020 0 c11 -20 8 -20 -500 -20 -508 0
-511 0 -500 20 10 20 21 20 500 20 479 0 490 0 500 -20z m310 0 c-10 -18 -21
-20 -143 -20 -121 0 -133 2 -145 20 -12 20 -10 20 143 20 153 0 155 0 145 -20z
m290 0 c0 -19 -7 -20 -135 -20 -106 0 -135 3 -135 13 0 25 12 27 142 27 121 0
128 -1 128 -20z m-310 -41 c0 -16 -20 -51 -43 -76 -37 -41 -92 -25 -162 46
l-39 41 122 0 c80 0 122 -4 122 -11z m4876 -2189 c34 -129 61 -237 59 -239 -2
-2 -67 14 -143 35 l-139 38 20 71 c21 75 100 295 119 333 15 29 7 51 84 -238z
m-73 -229 c76 -21 140 -41 142 -42 5 -5 94 -343 91 -346 -1 -1 -100 25 -219
59 l-217 61 0 38 c0 37 37 246 46 261 7 11 5 12 157 -31z m33 -356 l210 -59
22 -85 c34 -136 34 -139 -18 -186 -25 -22 -123 -111 -218 -199 -95 -87 -175
-156 -177 -154 -3 2 -16 74 -31 159 -22 124 -28 197 -31 377 -5 216 -5 224 13
214 11 -5 114 -35 230 -67z m-2161 -1416 c193 -33 352 -63 354 -65 2 -2 -9 -4
-25 -4 -27 0 -33 -6 -59 -60 -32 -67 -23 -62 -190 -100 -103 -24 -135 -41
-135 -73 0 -55 60 -97 140 -97 27 0 50 -2 50 -4 0 -2 -12 -30 -26 -61 -15 -32
-27 -70 -26 -85 l1 -27 -205 42 c-113 24 -206 44 -208 46 -3 4 -77 538 -76
552 0 5 12 6 28 3 15 -3 185 -33 377 -67z m575 -224 c0 -3 -54 -83 -121 -178
-67 -94 -127 -184 -135 -198 -12 -25 -15 -26 -57 -15 -24 6 -44 16 -45 21 -1
6 46 90 103 187 l105 177 67 4 c38 2 71 4 76 5 4 1 7 0 7 -3z m435 -43 c-269
-247 -264 -243 -313 -334 l-47 -89 -45 5 c-24 4 -48 10 -53 15 -4 4 18 43 50
86 50 68 81 95 233 206 159 116 227 159 175 111z m130 -302 c-44 -46 -256
-175 -282 -172 -34 5 -28 22 28 85 47 53 57 59 137 83 48 14 92 27 97 29 6 2
19 4 29 4 17 1 16 -3 -9 -29z"/>
<path d="M8883 10095 c-313 -57 -583 -267 -718 -558 -63 -137 -80 -221 -80
-402 0 -189 18 -273 91 -424 59 -125 115 -201 215 -295 127 -119 286 -203 462
-243 110 -25 318 -23 430 5 358 89 630 355 724 709 21 81 26 120 26 228 0 182
-27 303 -105 460 -189 381 -622 597 -1045 520z"/>
</g>
</svg>
